<?xml version="1.0" encoding="iso-8859-1"?>
<!-- Generator: Adobe Illustrator 18.1.1, SVG Export Plug-In . SVG Version: 6.00 Build 0)  -->
<svg version="1.1" id="Capa_1" xmlns="http://www.w3.org/2000/svg" xmlns:xlink="http://www.w3.org/1999/xlink" x="0px" y="0px"
	 viewBox="0 0 15.564 15.564" style="enable-background:new 0 0 15.564 15.564;" xml:space="preserve">
<g>
	<g>
		<g>
			<path style="fill:#090509;" d="M8.581,14.65c0.024,0.004,0.047,0.011,0.073,0.013C8.551,14.657,8.528,14.653,8.581,14.65z"/>
			<path style="fill:#090509;" d="M0,7.274c0,0.453,0.273,0.856,0.816,1.21C1.359,8.838,2.081,9.223,2.505,9.17
				c0,0.574,0.202,1.159,0.608,1.76c0.406,0.599,0.867,1.038,1.378,1.319c0.162,0.092,0.144,0.285-0.056,0.58
				c-0.063,0.146-0.188,0.287-0.375,0.419l-0.485,0.36c-0.263,0.238-0.35,0.445-0.263,0.62c0.1,0.213,0.294,0.318,0.581,0.318
				c0.688-0.092,1.137-0.401,1.35-0.922c0.112-0.254,2.531-0.66,2.531-0.66c0.124,0,0.536-0.105,0.734-0.013
				c-3.133-1.911-2.014-2.639-1.082-3.081c0.207-0.115,0.494-0.212,0.867-0.29c0.136-0.029,0.225-0.043,0.225-0.043
				C8.436,9.548,8.365,9.564,8.292,9.578c-0.215,0.049-0.55,0.14-0.867,0.29c-1.693,0.933,1.584,2.939,1.962,3.165
				c0.022,0.014,0.034,0.02,0.034,0.02l-0.29,0.128c0,0.054-0.348,0.146-0.536,0.281c-0.236,0.172-0.38,0.286-0.43,0.338
				c-0.124,0.134-0.131,0.314-0.019,0.541c0.089,0.178,0.236,0.278,0.434,0.307c0.081-0.005,1.266-0.207,1.891-0.288
				c0.7-0.08,1.218-0.193,1.556-0.34c0.089-0.04,0.2-0.146,0.338-0.32c0.099-0.12,0.199-0.246,0.3-0.381
				c0.238-0.172,0.551-0.438,0.937-0.798c0.052-0.04,0.148-0.018,0.292,0.07c0.143,0.086,0.271,0.09,0.384,0.01
				c0.701-0.48,1.286-1.431,1.286-1.909c0-0.412-0.099-0.62-0.3-0.62c-0.176,0-0.668,0.619-1.005,0.911
				c0-0.026-0.02-0.047-0.065-0.058c-0.044-0.016-0.072-0.041-0.085-0.082c-0.051-0.945-0.182-1.923-0.393-2.933
				c-0.576-1.318-1.618-3.968-6.58-2.816c-0.213,0.106-0.544,0.26-0.994,0.459c-0.1,0.04-0.222,0.019-0.365-0.06
				C5.635,5.415,5.569,5.322,5.58,5.216C5.618,4.75,5.558,4.604,5.869,3.832c0.137-0.333,0.362-0.865,0.674-1.596
				C6.568,2.182,7.22,0.954,6.412,1.256C5.604,1.558,5.042,3.395,4.58,3.502C4.555,3.487,5.625,1.3,5.55,1.109
				C5.475,0.959,5.394,0.89,5.307,0.903c-0.35,0.053-0.725,0.387-1.125,1c0,0-1.008,1.84-1.057,1.827
				c-0.588-0.09-1.226,0.363-1.913,1.362C0.561,6.037,0,6.608,0,7.274z M2.215,5.421c0-0.293,0.238-0.531,0.531-0.531
				s0.531,0.238,0.531,0.531c0,0.293-0.238,0.531-0.531,0.531C2.452,5.952,2.215,5.715,2.215,5.421z"/>
		</g>
	</g>
</g>
<g>
</g>
<g>
</g>
<g>
</g>
<g>
</g>
<g>
</g>
<g>
</g>
<g>
</g>
<g>
</g>
<g>
</g>
<g>
</g>
<g>
</g>
<g>
</g>
<g>
</g>
<g>
</g>
<g>
</g>
</svg>
